<svg width="70" height="70" viewBox="0 0 70 70" fill="none" xmlns="http://www.w3.org/2000/svg">
<path d="M68.7258 30.625L50.2797 12.0531C45.3532 7.13654 38.6775 4.37524 31.7174 4.37524C24.7573 4.37524 18.0815 7.13654 13.1551 12.0531L13.1305 12.0777L9.36523 15.9688C8.97519 16.3879 8.76504 16.9433 8.7799 17.5157C8.79475 18.088 9.03342 18.6318 9.44467 19.0301C9.85593 19.4285 10.407 19.6498 10.9795 19.6464C11.5521 19.643 12.1005 19.4153 12.507 19.0121L16.2613 15.1348C17.7718 13.6246 19.4954 12.3441 21.3773 11.334L34.0922 24.0625L7.84219 50.3125C7.43582 50.7188 7.11347 51.2011 6.89355 51.732C6.67362 52.2629 6.56042 52.8318 6.56042 53.4065C6.56042 53.9811 6.67362 54.5501 6.89355 55.0809C7.11347 55.6118 7.43582 56.0941 7.84219 56.5004L13.4996 62.1578C13.9059 62.5642 14.3882 62.8865 14.9191 63.1065C15.4499 63.3264 16.0189 63.4396 16.5936 63.4396C17.1682 63.4396 17.7372 63.3264 18.268 63.1065C18.7989 62.8865 19.2812 62.5642 19.6875 62.1578L45.9375 35.9078L49.8586 39.8289L54.6875 44.6524C55.0938 45.0587 55.5761 45.3811 56.107 45.601C56.6378 45.8209 57.2068 45.9341 57.7814 45.9341C58.3561 45.9341 58.9251 45.8209 59.4559 45.601C59.9868 45.3811 60.4691 45.0587 60.8754 44.6524L68.7203 36.8074C69.5401 35.9879 70.0011 34.8765 70.0021 33.7174C70.0031 32.5582 69.5441 31.446 68.7258 30.625ZM16.5922 59.0625L10.9375 53.4051L29.5312 34.8113L35.1859 40.4688L16.5922 59.0625ZM44.3898 31.2594L38.2812 37.3707L32.6238 31.7188L38.7352 25.6074C38.9385 25.4043 39.0999 25.163 39.21 24.8975C39.3201 24.6319 39.3767 24.3472 39.3767 24.0598C39.3767 23.7723 39.3201 23.4877 39.21 23.2221C39.0999 22.9565 38.9385 22.7153 38.7352 22.5121L25.7906 9.57032C29.5305 8.51703 33.4835 8.47885 37.243 9.45971C41.0025 10.4406 44.433 12.4051 47.1816 15.1512L59.273 27.3219L51.4062 35.1805L47.4852 31.2594C47.282 31.056 47.0407 30.8947 46.7752 30.7846C46.5096 30.6745 46.225 30.6178 45.9375 30.6178C45.65 30.6178 45.3654 30.6745 45.0998 30.7846C44.8343 30.8947 44.593 31.056 44.3898 31.2594ZM57.7883 41.557L54.507 38.2758L62.3437 30.4199L65.625 33.7012L57.7883 41.557Z" fill="#FD6F00"/>
</svg>
