<svg width="70" height="70" viewBox="0 0 70 70" fill="none" xmlns="http://www.w3.org/2000/svg">
<path d="M35 35C35.0002 35.3281 34.9266 35.6521 34.7846 35.948C34.6426 36.2438 34.4358 36.5039 34.1797 36.709L23.2422 45.459C23.0178 45.6385 22.7602 45.7721 22.4841 45.8521C22.2081 45.9321 21.919 45.9569 21.6333 45.9252C21.3477 45.8934 21.0711 45.8058 20.8193 45.6671C20.5675 45.5285 20.3456 45.3416 20.166 45.1172C19.9865 44.8928 19.8529 44.6352 19.7729 44.3591C19.6929 44.0831 19.6681 43.794 19.6998 43.5083C19.7316 43.2227 19.8192 42.9461 19.9579 42.6943C20.0965 42.4425 20.2834 42.2206 20.5078 42.041L29.3098 35L20.5078 27.959C20.2834 27.7794 20.0965 27.5575 19.9579 27.3057C19.8192 27.0539 19.7316 26.7773 19.6998 26.4917C19.6681 26.206 19.6929 25.9169 19.7729 25.6409C19.8529 25.3648 19.9865 25.1072 20.166 24.8828C20.3456 24.6584 20.5675 24.4715 20.8193 24.3329C21.0711 24.1942 21.3477 24.1066 21.6333 24.0748C21.919 24.0431 22.2081 24.0679 22.4841 24.1479C22.7602 24.2279 23.0178 24.3615 23.2422 24.541L34.1797 33.291C34.4358 33.4961 34.6426 33.7562 34.7846 34.052C34.9266 34.3479 35.0002 34.6719 35 35ZM48.125 41.5625H37.1875C36.6073 41.5625 36.0509 41.793 35.6407 42.2032C35.2305 42.6134 35 43.1698 35 43.75C35 44.3302 35.2305 44.8866 35.6407 45.2968C36.0509 45.707 36.6073 45.9375 37.1875 45.9375H48.125C48.7052 45.9375 49.2616 45.707 49.6718 45.2968C50.082 44.8866 50.3125 44.3302 50.3125 43.75C50.3125 43.1698 50.082 42.6134 49.6718 42.2032C49.2616 41.793 48.7052 41.5625 48.125 41.5625ZM63.4375 15.3125V54.6875C63.4375 55.8478 62.9766 56.9606 62.1561 57.7811C61.3356 58.6016 60.2228 59.0625 59.0625 59.0625H10.9375C9.77718 59.0625 8.66438 58.6016 7.84391 57.7811C7.02344 56.9606 6.5625 55.8478 6.5625 54.6875V15.3125C6.5625 14.1522 7.02344 13.0394 7.84391 12.2189C8.66438 11.3984 9.77718 10.9375 10.9375 10.9375H59.0625C60.2228 10.9375 61.3356 11.3984 62.1561 12.2189C62.9766 13.0394 63.4375 14.1522 63.4375 15.3125ZM59.0625 54.6875V15.3125H10.9375V54.6875H59.0625Z" fill="#FD6F00"/>
</svg>
