<svg width="60" height="60" viewBox="0 0 60 60" fill="none" xmlns="http://www.w3.org/2000/svg">
<g clip-path="url(#clip0_1689_77)">
<path d="M10.625 4.83609e-06H49.375C50.7707 -0.00134432 52.1529 0.279605 53.4426 0.826775C54.7322 1.37394 55.9041 2.17659 56.8909 3.18878C57.8778 4.20097 58.6604 5.40283 59.1939 6.72558C59.7274 8.04832 60.0013 9.46599 60 10.8974V49.1026C60.0013 50.534 59.7274 51.9517 59.1939 53.2744C58.6604 54.5972 57.8778 55.799 56.8909 56.8112C55.9041 57.8234 54.7322 58.6261 53.4426 59.1732C52.1529 59.7204 50.7707 60.0013 49.375 60H10.625C9.22934 60.0013 7.84711 59.7204 6.55744 59.1732C5.26776 58.6261 4.09595 57.8234 3.10906 56.8112C2.12218 55.799 1.3396 54.5972 0.806105 53.2744C0.272615 51.9517 -0.00131071 50.534 4.71519e-06 49.1026V10.8974C-0.00131071 9.46599 0.272615 8.04832 0.806105 6.72558C1.3396 5.40283 2.12218 4.20097 3.10906 3.18878C4.09595 2.17659 5.26776 1.37394 6.55744 0.826775C7.84711 0.279605 9.22934 -0.00134432 10.625 4.83609e-06Z" fill="#939393"/>
<path d="M42.4583 27.7917C42.4583 26.3943 42.4583 25.1096 42.1987 24.4826C41.939 23.8557 41.4453 23.3603 40.4562 22.3728L32.3655 14.2822C31.513 13.4297 31.0877 13.0043 30.5581 12.7515C30.4485 12.6989 30.3361 12.6521 30.2215 12.6114C29.6698 12.4167 29.0667 12.4167 27.8623 12.4167C22.3188 12.4167 19.5462 12.4167 17.6687 13.9303C17.2896 14.2359 16.9443 14.5813 16.6386 14.9604C15.125 16.8413 15.125 19.6105 15.125 25.154V32.9167C15.125 39.3588 15.125 42.5807 17.1272 44.5812C19.1293 46.5816 22.3495 46.5833 28.7917 46.5833H42.4583M30.5 13.2708V14.125C30.5 18.9562 30.5 21.3735 32.0016 22.8734C33.5015 24.375 35.9188 24.375 40.75 24.375H41.6042" stroke="black" stroke-width="2" stroke-linecap="round" stroke-linejoin="round"/>
<path d="M36.4791 32.9167H33.0625C32.6094 32.9167 32.1749 33.0966 31.8545 33.417C31.5341 33.7374 31.3541 34.1719 31.3541 34.625V35.4792C31.3541 35.9322 31.5341 36.3668 31.8545 36.6871C32.1749 37.0075 32.6094 37.1875 33.0625 37.1875H34.7708C35.2239 37.1875 35.6584 37.3675 35.9788 37.6879C36.2991 38.0082 36.4791 38.4428 36.4791 38.8958V39.75C36.4791 40.2031 36.2991 40.6376 35.9788 40.958C35.6584 41.2783 35.2239 41.4583 34.7708 41.4583H31.3541M45.875 32.9167H42.4583C42.0052 32.9167 41.5707 33.0966 41.2503 33.417C40.9299 33.7374 40.75 34.1719 40.75 34.625V35.4792C40.75 35.9322 40.9299 36.3668 41.2503 36.6871C41.5707 37.0075 42.0052 37.1875 42.4583 37.1875H44.1666C44.6197 37.1875 45.0542 37.3675 45.3746 37.6879C45.695 38.0082 45.875 38.4428 45.875 38.8958V39.75C45.875 40.2031 45.695 40.6376 45.3746 40.958C45.0542 41.2783 44.6197 41.4583 44.1666 41.4583H40.75M27.0833 34.6506C27.0064 32.956 25.4945 32.9167 23.9246 32.9167C21.5056 32.9167 21.1041 33.4941 21.1041 35.7645V38.6105C21.1041 40.8809 21.5056 41.4583 23.9246 41.4583C25.4963 41.4583 27.0064 41.4156 27.085 39.721" stroke="black" stroke-width="2" stroke-linecap="round" stroke-linejoin="round"/>
</g>
<defs>
<clipPath id="clip0_1689_77">
<rect width="60" height="60" rx="30" fill="white"/>
</clipPath>
</defs>
</svg>
