<svg width="61" height="61" viewBox="0 0 61 61" fill="none" xmlns="http://www.w3.org/2000/svg">
<path fill-rule="evenodd" clip-rule="evenodd" d="M31.9734 38.5511C33.7106 39.9445 35.8623 40.72 38.089 40.7554C40.3157 40.7907 42.4909 40.0838 44.2714 38.7461C46.052 37.4085 47.3366 35.5162 47.9227 33.3677C48.5089 31.2192 48.3632 28.9368 47.5087 26.8802C46.7941 25.1531 45.6111 23.66 44.0932 22.5695C45.3881 21.6413 46.443 20.4178 47.1704 19.0004C47.8979 17.583 48.2769 16.0125 48.276 14.4194C48.276 11.759 47.2192 9.20763 45.3381 7.32648C43.4569 5.44532 40.9055 4.3885 38.2452 4.3885H21.945C19.8214 4.38789 17.7523 5.06129 16.0358 6.31173C14.3193 7.56217 13.044 9.32511 12.3935 11.3467C11.7429 13.3682 11.7508 15.5441 12.4159 17.5609C13.081 19.5778 14.369 21.3314 16.0945 22.5695C14.8002 23.4981 13.7456 24.7218 13.0181 26.139C12.2907 27.5563 11.9113 29.1265 11.9113 30.7195C11.9113 32.3126 12.2907 33.8827 13.0181 35.3C13.7456 36.7173 14.8002 37.9409 16.0945 38.8696C14.6981 39.8717 13.5825 41.2157 12.8549 42.7729C12.1272 44.33 11.8119 46.048 11.9392 47.7621C12.0664 49.4761 12.632 51.1287 13.5816 52.5614C14.5312 53.994 15.833 55.1586 17.3621 55.9434C18.8912 56.7283 20.5964 57.107 22.314 57.0434C24.0316 56.9797 25.704 56.4758 27.1708 55.58C28.6377 54.6841 29.8497 53.4264 30.6907 51.9274C31.5316 50.4284 31.9733 48.7385 31.9734 47.0197V38.5511ZM21.9425 8.15008C20.2798 8.15008 18.6852 8.81059 17.5095 9.98631C16.3337 11.162 15.6732 12.7567 15.6732 14.4194C15.6732 16.0821 16.3337 17.6767 17.5095 18.8524C18.6852 20.0281 20.2798 20.6887 21.9425 20.6887H28.2118V8.15008H21.9425ZM28.2118 40.7504H21.9425C20.7026 40.7504 19.4905 41.1181 18.4595 41.807C17.4285 42.4958 16.6249 43.475 16.1504 44.6205C15.6759 45.7661 15.5518 47.0266 15.7937 48.2428C16.0356 49.4589 16.6327 50.576 17.5095 51.4527C18.3862 52.3295 19.5033 52.9266 20.7194 53.1685C21.9356 53.4104 23.1961 53.2863 24.3417 52.8118C25.4872 52.3372 26.4664 51.5337 27.1552 50.5027C27.8441 49.4717 28.2118 48.2596 28.2118 47.0197V40.7504ZM21.9425 24.4502C20.2798 24.4502 18.6852 25.1108 17.5095 26.2865C16.3337 27.4622 15.6732 29.0568 15.6732 30.7195C15.6732 32.3822 16.3337 33.9769 17.5095 35.1526C18.6852 36.3283 20.2798 36.9888 21.9425 36.9888H28.2118V24.4502H21.9425ZM31.9734 30.7195C31.9734 32.3826 32.634 33.9775 33.81 35.1535C34.9859 36.3294 36.5809 36.9901 38.2439 36.9901C39.907 36.9901 41.5019 36.3294 42.6779 35.1535C43.8538 33.9775 44.5145 32.3826 44.5145 30.7195C44.5145 29.0565 43.8538 27.4615 42.6779 26.2856C41.5019 25.1096 39.907 24.449 38.2439 24.449C36.5809 24.449 34.9859 25.1096 33.81 26.2856C32.634 27.4615 31.9734 29.0565 31.9734 30.7195ZM38.2427 20.6887C39.9054 20.6887 41.5 20.0281 42.6757 18.8524C43.8514 17.6767 44.512 16.0821 44.512 14.4194C44.512 12.7567 43.8514 11.162 42.6757 9.98631C41.5 8.81059 39.9054 8.15008 38.2427 8.15008H31.9734V20.6887H38.2427Z" fill="#959595"/>
</svg>
