<svg width="60" height="60" viewBox="0 0 60 60" fill="none" xmlns="http://www.w3.org/2000/svg">
<g clip-path="url(#clip0_1689_77)">
<path d="M10.625 4.83609e-06H49.375C50.7707 -0.00134432 52.1529 0.279605 53.4426 0.826775C54.7322 1.37394 55.9041 2.17659 56.8909 3.18878C57.8778 4.20097 58.6604 5.40283 59.1939 6.72558C59.7274 8.04832 60.0013 9.46599 60 10.8974V49.1026C60.0013 50.534 59.7274 51.9517 59.1939 53.2744C58.6604 54.5972 57.8778 55.799 56.8909 56.8112C55.9041 57.8234 54.7322 58.6261 53.4426 59.1732C52.1529 59.7204 50.7707 60.0013 49.375 60H10.625C9.22934 60.0013 7.84711 59.7204 6.55744 59.1732C5.26776 58.6261 4.09595 57.8234 3.10906 56.8112C2.12218 55.799 1.3396 54.5972 0.806105 53.2744C0.272615 51.9517 -0.00131071 50.534 4.71519e-06 49.1026V10.8974C-0.00131071 9.46599 0.272615 8.04832 0.806105 6.72558C1.3396 5.40283 2.12218 4.20097 3.10906 3.18878C4.09595 2.17659 5.26776 1.37394 6.55744 0.826775C7.84711 0.279605 9.22934 -0.00134432 10.625 4.83609e-06Z" fill="#939393"/>
<path d="M23 50C26.866 50 30 46.9406 30 43.1667C30 39.3927 26.9406 36.3333 23.1666 36.3333H23C19.134 36.3333 16 39.3927 16 43.1667C16 46.9406 19.134 50 23 50Z" fill="black"/>
<path d="M16 29.5C16 25.7261 19.134 22.6667 23 22.6667H23.1666C26.9406 22.6667 30 25.7261 30 29.5C30 33.274 26.9406 36.3333 23.1666 36.3333H23C19.134 36.3333 16 33.274 16 29.5Z" fill="black"/>
<path d="M16 15.8333C16 12.0594 19.134 9 23 9H23.1666C26.9406 9 30 12.0594 30 15.8333C30 19.6073 26.9406 22.6667 23.1666 22.6667H23C19.134 22.6667 16 19.6073 16 15.8333Z" fill="black"/>
<path d="M30 15.8333C30 12.0594 33.0594 9 36.8333 9H37C40.866 9 44 12.0594 44 15.8333C44 19.6073 40.866 22.6667 37 22.6667H36.8333C33.0594 22.6667 30 19.6073 30 15.8333Z" fill="black"/>
<path d="M44 29.5C44 33.274 40.866 36.3333 37 36.3333C33.134 36.3333 30 33.274 30 29.5C30 25.7261 33.134 22.6667 37 22.6667C40.866 22.6667 44 25.7261 44 29.5Z" fill="black"/>
</g>
<defs>
<clipPath id="clip0_1689_77">
<rect width="60" height="60" rx="30" fill="white"/>
</clipPath>
</defs>
</svg>
