<svg width="70" height="70" viewBox="0 0 70 70" fill="none" xmlns="http://www.w3.org/2000/svg">
<path d="M48.125 30.625H41.5625C40.9824 30.625 40.426 30.3945 40.0157 29.9843C39.6055 29.5741 39.375 29.0177 39.375 28.4375C39.375 27.8573 39.6055 27.3009 40.0157 26.8907C40.426 26.4805 40.9824 26.25 41.5625 26.25H48.125C48.7052 26.25 49.2616 26.4805 49.6718 26.8907C50.0821 27.3009 50.3125 27.8573 50.3125 28.4375C50.3125 29.0177 50.0821 29.5741 49.6718 29.9843C49.2616 30.3945 48.7052 30.625 48.125 30.625ZM28.4375 26.25H26.25V24.0625C26.25 23.4823 26.0196 22.9259 25.6093 22.5157C25.1991 22.1055 24.6427 21.875 24.0625 21.875C23.4824 21.875 22.926 22.1055 22.5157 22.5157C22.1055 22.9259 21.875 23.4823 21.875 24.0625V26.25H19.6875C19.1074 26.25 18.551 26.4805 18.1407 26.8907C17.7305 27.3009 17.5 27.8573 17.5 28.4375C17.5 29.0177 17.7305 29.5741 18.1407 29.9843C18.551 30.3945 19.1074 30.625 19.6875 30.625H21.875V32.8125C21.875 33.3927 22.1055 33.9491 22.5157 34.3593C22.926 34.7695 23.4824 35 24.0625 35C24.6427 35 25.1991 34.7695 25.6093 34.3593C26.0196 33.9491 26.25 33.3927 26.25 32.8125V30.625H28.4375C29.0177 30.625 29.5741 30.3945 29.9843 29.9843C30.3946 29.5741 30.625 29.0177 30.625 28.4375C30.625 27.8573 30.3946 27.3009 29.9843 26.8907C29.5741 26.4805 29.0177 26.25 28.4375 26.25ZM66.0297 54.8652C65.2053 56.0425 64.1331 57.025 62.8884 57.7436C61.6437 58.4622 60.2568 58.8996 58.825 59.0249C57.3932 59.1503 55.9514 58.9606 54.6008 58.4692C53.2501 57.9778 52.0235 57.1966 51.0071 56.1805C50.9742 56.1477 50.9414 56.1148 50.9114 56.0793L40.0531 43.75H29.936L19.0887 56.0793L18.993 56.1805C17.1451 58.0244 14.6418 59.0607 12.0313 59.0625C10.5942 59.062 9.17465 58.7468 7.87237 58.1391C6.5701 57.5314 5.41667 56.646 4.49311 55.5449C3.56955 54.4439 2.89827 53.154 2.52642 51.7659C2.15456 50.3777 2.09115 48.925 2.34065 47.5098C2.33933 47.497 2.33933 47.4842 2.34065 47.4715L6.81682 24.4781C7.483 20.6857 9.4644 17.2494 12.4129 14.773C15.3613 12.2967 19.0882 10.9386 22.9387 10.9375H47.0313C50.8701 10.9436 54.5856 12.2939 57.5326 14.7539C60.4796 17.214 62.4721 20.6283 63.1641 24.4043C63.1641 24.4207 63.1641 24.4371 63.1641 24.4535L67.6403 47.4688C67.6416 47.4815 67.6416 47.4943 67.6403 47.507C67.8719 48.7791 67.8489 50.0845 67.5724 51.3475C67.2959 52.6106 66.7716 53.8063 66.0297 54.8652ZM47.0313 39.375C50.2222 39.375 53.2824 38.1074 55.5387 35.8511C57.795 33.5948 59.0625 30.5346 59.0625 27.3438C59.0625 24.1529 57.795 21.0927 55.5387 18.8364C53.2824 16.5801 50.2222 15.3125 47.0313 15.3125H22.9387C20.114 15.315 17.3806 16.3136 15.2195 18.1327C13.0584 19.9517 11.608 22.4745 11.1235 25.2574V25.293L6.64455 48.2863C6.44658 49.4263 6.61524 50.5996 7.12629 51.6376C7.63734 52.6757 8.46443 53.5248 9.48862 54.0631C10.5128 54.6013 11.6813 54.8008 12.8261 54.633C13.9708 54.4651 15.0328 53.9385 15.8594 53.1289L27.3219 40.116C27.5271 39.8832 27.7796 39.6967 28.0624 39.5689C28.3453 39.4412 28.6521 39.3751 28.9625 39.375H47.0313ZM63.3555 48.2863L60.9657 35.9816C59.4958 38.3551 57.4447 40.3142 55.0063 41.6736C52.5679 43.033 49.823 43.7476 47.0313 43.75H45.8828L54.1406 53.1316C54.7633 53.7372 55.5206 54.1866 56.3505 54.4428C57.1804 54.699 58.0592 54.7547 58.9149 54.6055C60.3403 54.3539 61.6078 53.5475 62.4396 52.363C63.2715 51.1785 63.5999 49.7125 63.3528 48.2863H63.3555Z" fill="#FD6F00"/>
</svg>
