<svg width="60" height="60" viewBox="0 0 60 60" fill="none" xmlns="http://www.w3.org/2000/svg">
<path fill-rule="evenodd" clip-rule="evenodd" d="M0 30C0 13.4315 13.4315 0 30 0C46.5685 0 60 13.4315 60 30C60 46.5685 46.5685 60 30 60C13.4315 60 0 46.5685 0 30ZM16.8964 46.4013L29.8936 50L42.9267 46.3962L45.8261 14H14L16.8964 46.4013Z" fill="#939393"/>
<path d="M24.8009 28.7209L24.443 24.5365L39.9287 24.5412L40.2843 20.5046L20 20.5L21.0738 32.8313H35.1232L34.6221 38.1056L30.1422 39.3434L25.593 38.0964L25.3043 34.8496H21.2862L21.7943 41.2693L30.1422 43.5L38.4231 41.2785L39.5685 28.7209H24.8009Z" fill="#939393"/>
</svg>
