<svg width="60" height="60" viewBox="0 0 60 60" fill="none" xmlns="http://www.w3.org/2000/svg">
<g clip-path="url(#clip0_1689_77)">
<path d="M10.625 4.83609e-06H49.375C50.7707 -0.00134432 52.1529 0.279605 53.4426 0.826775C54.7322 1.37394 55.9041 2.17659 56.8909 3.18878C57.8778 4.20097 58.6604 5.40283 59.1939 6.72558C59.7274 8.04832 60.0013 9.46599 60 10.8974V49.1026C60.0013 50.534 59.7274 51.9517 59.1939 53.2744C58.6604 54.5972 57.8778 55.799 56.8909 56.8112C55.9041 57.8234 54.7322 58.6261 53.4426 59.1732C52.1529 59.7204 50.7707 60.0013 49.375 60H10.625C9.22934 60.0013 7.84711 59.7204 6.55744 59.1732C5.26776 58.6261 4.09595 57.8234 3.10906 56.8112C2.12218 55.799 1.3396 54.5972 0.806105 53.2744C0.272615 51.9517 -0.00131071 50.534 4.71519e-06 49.1026V10.8974C-0.00131071 9.46599 0.272615 8.04832 0.806105 6.72558C1.3396 5.40283 2.12218 4.20097 3.10906 3.18878C4.09595 2.17659 5.26776 1.37394 6.55744 0.826775C7.84711 0.279605 9.22934 -0.00134432 10.625 4.83609e-06Z" fill="#939393"/>
<path d="M34.5067 35.6476C35.7152 37.621 37.2876 39.0714 40.0686 39.0714C42.4048 39.0714 43.8971 37.9038 43.8971 36.2905C43.8971 34.3571 42.3638 33.6724 39.7924 32.5476L38.3829 31.9429C34.3143 30.2095 31.6114 28.0381 31.6114 23.4476C31.6114 19.219 34.8333 16 39.8686 16C43.4533 16 46.0305 17.2476 47.8876 20.5143L43.4971 23.3333C42.5305 21.6 41.4876 20.9171 39.8686 20.9171C38.2171 20.9171 37.1705 21.9648 37.1705 23.3333C37.1705 25.0248 38.2181 25.7095 40.6371 26.7571L42.0467 27.361C46.8371 29.4152 49.5419 31.5095 49.5419 36.2181C49.5419 41.2943 45.5543 44.0752 40.199 44.0752C34.9629 44.0752 31.58 41.58 29.9248 38.3095L34.5067 35.6476ZM14.5895 36.1362C15.4752 37.7076 16.281 39.0362 18.2181 39.0362C20.0705 39.0362 21.239 38.3114 21.239 35.4933V16.3219H26.8771V35.5695C26.8771 41.4076 23.4543 44.0648 18.4581 44.0648C13.9438 44.0648 11.3295 41.7286 10 38.9148L14.5895 36.1362Z" fill="black"/>
</g>
<defs>
<clipPath id="clip0_1689_77">
<rect width="60" height="60" rx="30" fill="white"/>
</clipPath>
</defs>
</svg>
