<svg width="70" height="70" viewBox="0 0 70 70" fill="none" xmlns="http://www.w3.org/2000/svg">
<path d="M52.6367 46.8863C55.4029 44.5627 57.6127 41.6482 59.1034 38.3574C60.594 35.0666 61.3276 31.4833 61.25 27.8715C60.9765 15.3727 50.966 5.0668 38.489 4.41055C35.2698 4.23533 32.0481 4.70883 29.0154 5.80293C25.9827 6.89702 23.2008 8.58941 20.8349 10.7796C18.469 12.9697 16.5674 15.613 15.2429 18.5524C13.9185 21.4918 13.1982 24.6674 13.125 27.8906L6.98629 39.6977C6.96168 39.7469 6.93707 39.7961 6.9152 39.8453C6.4751 40.8711 6.44373 42.0263 6.82752 43.0745C7.21131 44.1227 7.98122 44.9845 8.97965 45.4836L9.04801 45.5137L15.3125 48.382V56.875C15.3125 58.0353 15.7734 59.1481 16.5939 59.9686C17.4143 60.7891 18.5271 61.25 19.6875 61.25H32.8125C33.3926 61.25 33.949 61.0195 34.3593 60.6093C34.7695 60.1991 35 59.6427 35 59.0625C35 58.4823 34.7695 57.9259 34.3593 57.5157C33.949 57.1055 33.3926 56.875 32.8125 56.875H19.6875V46.9793C19.6878 46.56 19.5676 46.1495 19.3412 45.7965C19.1148 45.4436 18.7918 45.1632 18.4105 44.9887L10.9375 41.5625L17.2457 29.4383C17.4101 29.1302 17.4973 28.7867 17.5 28.4375C17.4993 23.9759 19.0141 19.6464 21.7962 16.1585C24.5782 12.6705 28.4625 10.2309 32.8125 9.23946V13.5023C31.3529 14.0184 30.1228 15.0337 29.3395 16.369C28.5562 17.7043 28.2702 19.2735 28.532 20.7993C28.7938 22.325 29.5865 23.7091 30.7701 24.707C31.9537 25.7048 33.4519 26.252 35 26.252C36.548 26.252 38.0463 25.7048 39.2298 24.707C40.4134 23.7091 41.2062 22.325 41.468 20.7993C41.7297 19.2735 41.4437 17.7043 40.6604 16.369C39.8771 15.0337 38.647 14.0184 37.1875 13.5023V8.75C37.5429 8.75 37.8984 8.75 38.2539 8.77735C42.1331 8.99955 45.8606 10.3606 48.9704 12.6902C52.0801 15.0198 54.4339 18.2146 55.7375 21.875H50.3125C49.9916 21.8749 49.6746 21.9454 49.3839 22.0815C49.0933 22.2176 48.8362 22.4159 48.6308 22.6625L41.6554 31.0352C40.2007 30.4931 38.601 30.4829 37.1395 31.0065C35.678 31.5301 34.4487 32.5537 33.6691 33.8963C32.8895 35.2388 32.6098 36.8138 32.8794 38.3427C33.1491 39.8716 33.9507 41.2559 35.1426 42.2507C36.3344 43.2455 37.8397 43.7868 39.3922 43.7788C40.9446 43.7708 42.4443 43.2141 43.6258 42.207C44.8074 41.2 45.5947 39.8075 45.8486 38.276C46.1025 36.7444 45.8066 35.1723 45.0132 33.8379L51.3379 26.25H56.7492C56.8148 26.8188 56.8549 27.393 56.8695 27.9727C56.9377 31.1058 56.2596 34.2103 54.8913 37.0297C53.523 39.8491 51.5036 42.3025 49 44.1875C48.6915 44.4188 48.4496 44.7275 48.2988 45.0823C48.148 45.4372 48.0937 45.8256 48.1414 46.2082L50.3289 63.7082C50.3954 64.2365 50.6524 64.7224 51.0516 65.0747C51.4508 65.4271 51.9648 65.6218 52.4972 65.6223C52.5886 65.6223 52.6799 65.6168 52.7707 65.6059C53.0558 65.5704 53.3311 65.479 53.581 65.3371C53.8308 65.1952 54.0502 65.0054 54.2267 64.7787C54.4032 64.5519 54.5333 64.2926 54.6095 64.0156C54.6857 63.7385 54.7067 63.4492 54.6711 63.1641L52.6367 46.8863ZM35 21.875C34.5673 21.875 34.1444 21.7467 33.7847 21.5063C33.4249 21.266 33.1445 20.9243 32.979 20.5246C32.8134 20.1249 32.7701 19.6851 32.8545 19.2607C32.9389 18.8364 33.1472 18.4466 33.4532 18.1407C33.7591 17.8348 34.1489 17.6264 34.5732 17.542C34.9975 17.4576 35.4374 17.501 35.8371 17.6665C36.2368 17.8321 36.5784 18.1125 36.8188 18.4722C37.0592 18.8319 37.1875 19.2549 37.1875 19.6875C37.1875 20.2677 36.957 20.8241 36.5468 21.2343C36.1365 21.6445 35.5801 21.875 35 21.875ZM39.375 39.375C38.9423 39.375 38.5194 39.2467 38.1597 39.0063C37.7999 38.766 37.5195 38.4243 37.354 38.0246C37.1884 37.6249 37.1451 37.1851 37.2295 36.7607C37.3139 36.3364 37.5222 35.9466 37.8282 35.6407C38.1341 35.3348 38.5239 35.1264 38.9482 35.042C39.3725 34.9576 39.8124 35.001 40.2121 35.1665C40.6118 35.3321 40.9534 35.6125 41.1938 35.9722C41.4342 36.3319 41.5625 36.7549 41.5625 37.1875C41.5625 37.7677 41.332 38.3241 40.9218 38.7343C40.5115 39.1445 39.9551 39.375 39.375 39.375Z" fill="#FD6F00"/>
</svg>
