<svg width="70" height="70" viewBox="0 0 70 70" fill="none" xmlns="http://www.w3.org/2000/svg">
<ellipse cx="35.0001" cy="35" rx="3.13613" ry="3.40278" transform="rotate(90 35.0001 35)" fill="#FD6F00"/>
<path d="M67.5278 35C67.5278 38.3911 64.4811 41.9386 58.4331 44.7256C52.5135 47.4534 44.2304 49.1806 35.0005 49.1807C25.7704 49.1807 17.4866 47.4535 11.5669 44.7256C5.51892 41.9386 2.47218 38.3911 2.47217 35C2.47217 31.6089 5.51891 28.0615 11.5669 25.2744C17.4866 22.5466 25.7704 20.8194 35.0005 20.8194C44.2304 20.8194 52.5135 22.5466 58.4331 25.2744C64.4811 28.0615 67.5278 31.6089 67.5278 35Z" stroke="#FD6F00" stroke-width="3"/>
<path d="M51.2182 60.8884C47.893 62.6578 42.9847 61.9232 37.4189 58.5363C31.9257 55.1935 26.1872 49.4734 21.5905 42.1355C16.9937 34.7975 14.4879 27.3573 14.0935 21.3014C13.6939 15.1655 15.4577 10.8806 18.783 9.11124C22.1083 7.3419 27.0166 8.07652 32.5824 11.4634C38.0756 14.8062 43.814 20.5263 48.4108 27.8642C53.0075 35.202 55.5132 42.6424 55.9077 48.6982C56.3073 54.834 54.5435 59.119 51.2182 60.8884Z" stroke="#FD6F00" stroke-width="3"/>
<path d="M18.7825 60.8884C22.1078 62.6578 27.016 61.9232 32.5819 58.5363C38.0751 55.1935 43.8135 49.4734 48.4103 42.1355C53.007 34.7975 55.5128 27.3573 55.9072 21.3014C56.3068 15.1655 54.543 10.8806 51.2177 9.11124C47.8925 7.3419 42.9842 8.07652 37.4184 11.4634C31.9252 14.8062 26.1867 20.5263 21.59 27.8642C16.9933 35.202 14.4875 42.6424 14.093 48.6982C13.6934 54.834 15.4573 59.119 18.7825 60.8884Z" stroke="#FD6F00" stroke-width="3"/>
</svg>
