<svg width="60" height="60" viewBox="0 0 60 60" fill="none" xmlns="http://www.w3.org/2000/svg">
<g clip-path="url(#clip0_1689_77)">
<path d="M10.625 4.83609e-06H49.375C50.7707 -0.00134432 52.1529 0.279605 53.4426 0.826775C54.7322 1.37394 55.9041 2.17659 56.8909 3.18878C57.8778 4.20097 58.6604 5.40283 59.1939 6.72558C59.7274 8.04832 60.0013 9.46599 60 10.8974V49.1026C60.0013 50.534 59.7274 51.9517 59.1939 53.2744C58.6604 54.5972 57.8778 55.799 56.8909 56.8112C55.9041 57.8234 54.7322 58.6261 53.4426 59.1732C52.1529 59.7204 50.7707 60.0013 49.375 60H10.625C9.22934 60.0013 7.84711 59.7204 6.55744 59.1732C5.26776 58.6261 4.09595 57.8234 3.10906 56.8112C2.12218 55.799 1.3396 54.5972 0.806105 53.2744C0.272615 51.9517 -0.00131071 50.534 4.71519e-06 49.1026V10.8974C-0.00131071 9.46599 0.272615 8.04832 0.806105 6.72558C1.3396 5.40283 2.12218 4.20097 3.10906 3.18878C4.09595 2.17659 5.26776 1.37394 6.55744 0.826775C7.84711 0.279605 9.22934 -0.00134432 10.625 4.83609e-06Z" fill="#939393"/>
<path fill-rule="evenodd" clip-rule="evenodd" d="M23.5907 13.0689C22.4173 12.7372 21.552 12.8259 20.9213 13.1604C20.2877 13.4921 19.7363 14.1525 19.3784 15.2905C19.0205 16.437 18.9003 17.9667 19.0733 19.8137C19.1027 20.113 19.1388 20.4189 19.1819 20.7315C20.8006 20.338 22.4424 20.0411 24.0981 19.8423C25.227 18.2832 26.4774 16.8111 27.8381 15.4392L27.6445 15.2876C26.1544 14.1382 24.7699 13.4006 23.5907 13.0689ZM30 13.4692C29.824 13.3243 29.646 13.1833 29.4661 13.046C27.7883 11.7537 26.0693 10.7902 24.4091 10.3212C22.7371 9.84949 21.0269 9.84949 19.5221 10.6472C18.0173 11.4449 17.0787 12.8402 16.5741 14.4613C16.0696 16.0739 15.9581 18.001 16.1517 20.0796C16.1967 20.5657 16.2603 21.0641 16.3424 21.5749C15.8418 21.7465 15.3627 21.9295 14.9051 22.1239C12.9368 22.9445 11.2501 23.9595 10.0357 25.1604C8.81547 26.3641 8 27.8308 8 29.5006C8 31.1703 8.81547 32.6342 10.0357 33.8437C11.2501 35.0445 12.9368 36.0567 14.9051 36.8801C15.3646 37.0707 15.8437 37.2537 16.3424 37.4291C16.2639 37.9256 16.2003 38.4243 16.1517 38.9244C15.9581 41.0002 16.0696 42.9272 16.5741 44.5427C17.0787 46.1638 18.0173 47.562 19.5221 48.354C21.0269 49.1488 22.74 49.1517 24.4091 48.6799C26.0693 48.2081 27.7883 47.2503 29.4661 45.9551L30 45.5291C30.176 45.674 30.354 45.816 30.5339 45.9551C32.2117 47.2475 33.9307 48.2081 35.5909 48.6799C37.26 49.1517 38.9731 49.1488 40.4779 48.354C41.9827 47.562 42.9213 46.1638 43.4259 44.5427C43.9304 42.9301 44.0419 41.0002 43.8483 38.9244C43.7997 38.4243 43.7361 37.9256 43.6576 37.4291C44.1563 37.2575 44.6354 37.0745 45.0949 36.8801C47.0632 36.0567 48.7499 35.0417 49.9643 33.8437C51.1845 32.6371 52 31.1675 52 29.4977C52 27.8337 51.1845 26.3641 49.9643 25.1575C48.7499 23.9566 47.0632 22.9416 45.0949 22.1211C44.6214 21.9244 44.1421 21.7414 43.6576 21.5721C43.7358 21.0613 43.7994 20.5628 43.8483 20.0767C44.0419 17.9981 43.9304 16.0739 43.4259 14.4585C42.9213 12.8373 41.9827 11.4392 40.4779 10.6443C38.9731 9.84949 37.26 9.84949 35.5909 10.3212C33.9307 10.7902 32.2117 11.7508 30.5339 13.046L30 13.4692ZM30 17.372C29.339 18.0315 28.682 18.751 28.0288 19.5306C29.3424 19.48 30.6576 19.48 31.9712 19.5306C31.3484 18.782 30.6907 18.0617 30 17.372ZM35.9019 19.8423C34.6992 18.2011 33.4379 16.7201 32.1619 15.4392L32.3525 15.2876C33.8485 14.1382 35.2272 13.4006 36.4093 13.0689C37.5797 12.7372 38.448 12.8259 39.0787 13.1604C39.7123 13.4921 40.2637 14.1525 40.6187 15.2905C40.9765 16.437 41.0997 17.9667 40.9267 19.8137C40.8973 20.1149 40.8612 20.4198 40.8181 20.7286C39.1994 20.3361 37.5576 20.0401 35.9019 19.8423ZM34.2504 22.5414C31.4229 22.2843 28.5771 22.2843 25.7496 22.5414C24.2387 24.7435 22.9321 27.0724 21.8453 29.5006C22.9327 31.927 24.2383 34.2548 25.7467 36.4569C28.5761 36.7144 31.4239 36.7144 34.2533 36.4569C35.763 34.2556 37.0686 31.9276 38.1547 29.5006C37.0674 27.0732 35.7589 24.7444 34.2504 22.5414ZM39.6037 25.7951C39.1186 24.8681 38.603 23.9565 38.0579 23.0617C38.8205 23.2047 39.5558 23.3648 40.2637 23.5421C40.0799 24.2759 39.8599 25.0269 39.6037 25.7951ZM39.6037 33.2032C39.1187 34.1312 38.6031 35.0437 38.0579 35.9394C38.8205 35.7965 39.5558 35.6354 40.2637 35.4562C40.0701 34.6981 39.85 33.9467 39.6037 33.2032ZM43.0651 34.5956C42.6077 32.8616 42.0315 31.1594 41.3403 29.5006C42.0619 27.7565 42.6397 26.0438 43.0651 24.4055C43.3662 24.5161 43.6596 24.6305 43.9451 24.7486C45.6933 25.4806 47.0163 26.3126 47.8787 27.1646C48.7352 28.0109 49.0696 28.8001 49.0696 29.5006C49.0696 30.2011 48.7352 30.9873 47.8787 31.8337C47.0163 32.6886 45.6933 33.5206 43.9451 34.2525C43.6541 34.3727 43.3607 34.487 43.0651 34.5956ZM40.8211 38.2697C39.2024 38.6631 37.5606 38.9601 35.9048 39.1589C34.7021 40.8 33.4408 42.2782 32.1648 43.562L32.3584 43.7107C33.8485 44.8629 35.2331 45.5977 36.4123 45.9322C37.5827 46.2639 38.4509 46.1753 39.0816 45.8407C39.7123 45.5062 40.2667 44.8458 40.6216 43.7078C40.9824 42.5641 41.1027 41.0316 40.9296 39.1846C40.9006 38.8788 40.8644 38.5738 40.8211 38.2697ZM30 41.6292C30.661 40.9697 31.318 40.2501 31.9712 39.4705C30.6576 39.5212 29.3424 39.5212 28.0288 39.4705C28.682 40.2482 29.339 40.9678 30 41.6292ZM21.9451 35.9394C21.3998 35.0437 20.8843 34.1312 20.3992 33.2032C20.145 33.9733 19.925 34.7243 19.7392 35.4562C20.4452 35.6354 21.1804 35.7965 21.9451 35.9394ZM19.1819 38.2697C20.8006 38.6631 22.4424 38.9601 24.0981 39.1589C25.3008 40.8 26.5592 42.2782 27.8381 43.562L27.6445 43.7107C26.1544 44.8629 24.7699 45.5977 23.5907 45.9322C22.4173 46.2639 21.552 46.1753 20.9184 45.8407C20.2848 45.5062 19.7363 44.8458 19.3784 43.7078C19.0205 42.5641 18.9003 41.0316 19.0733 39.1846C19.1032 38.8789 19.1394 38.5739 19.1819 38.2697ZM16.9379 34.5956C17.3632 32.9545 17.9381 31.2447 18.6627 29.5006C17.9715 27.8417 17.3952 26.1396 16.9379 24.4055C16.6348 24.5161 16.3414 24.6305 16.0579 24.7486C14.3096 25.4806 12.9867 26.3126 12.1243 27.1646C11.2677 28.0109 10.9333 28.8001 10.9333 29.5006C10.9333 30.2011 11.2677 30.9873 12.1243 31.8337C12.9867 32.6886 14.3096 33.5206 16.0579 34.2525C16.3434 34.3688 16.6367 34.4832 16.9379 34.5956ZM19.7392 23.5449C19.923 24.2769 20.143 25.0269 20.3992 25.7951C20.8843 24.8681 21.3999 23.9565 21.9451 23.0617C21.1824 23.2047 20.4471 23.3657 19.7392 23.5449ZM25.6 29.5006C25.6 28.3631 26.0636 27.2723 26.8887 26.468C27.7139 25.6637 28.833 25.2118 30 25.2118C31.167 25.2118 32.2861 25.6637 33.1113 26.468C33.9364 27.2723 34.4 28.3631 34.4 29.5006C34.4 30.638 33.9364 31.7289 33.1113 32.5332C32.2861 33.3375 31.167 33.7893 30 33.7893C28.833 33.7893 27.7139 33.3375 26.8887 32.5332C26.0636 31.7289 25.6 30.638 25.6 29.5006ZM30 28.071C29.611 28.071 29.238 28.2216 28.9629 28.4897C28.6879 28.7578 28.5333 29.1214 28.5333 29.5006C28.5333 29.8797 28.6879 30.2433 28.9629 30.5114C29.238 30.7795 29.611 30.9302 30 30.9302C30.389 30.9302 30.762 30.7795 31.0371 30.5114C31.3121 30.2433 31.4667 29.8797 31.4667 29.5006C31.4667 29.1214 31.3121 28.7578 31.0371 28.4897C30.762 28.2216 30.389 28.071 30 28.071Z" fill="black"/>
</g>
<defs>
<clipPath id="clip0_1689_77">
<rect width="60" height="60" rx="30" fill="white"/>
</clipPath>
</defs>
</svg>
