<svg width="70" height="70" viewBox="0 0 70 70" fill="none" xmlns="http://www.w3.org/2000/svg">
<path fill-rule="evenodd" clip-rule="evenodd" d="M5.07562 31.3545C3.55906 32.6341 2.92196 33.8683 2.92196 35C2.92196 36.1317 3.55906 37.3659 5.07562 38.6455C6.59201 39.9251 8.86831 41.1399 11.8055 42.1882C17.6697 44.2811 25.8698 45.6043 35 45.6043C44.1302 45.6043 52.3303 44.2811 58.1945 42.1882C61.1317 41.1399 63.408 39.9251 64.9244 38.6455C66.4409 37.3659 67.078 36.1317 67.078 35C67.078 33.8683 66.4409 32.6341 64.9244 31.3545C63.408 30.0749 61.1317 28.8601 58.1945 27.8118C52.3303 25.7189 44.1302 24.3957 35 24.3957C25.8698 24.3957 17.6697 25.7189 11.8055 27.8118C8.86831 28.8601 6.59201 30.0749 5.07562 31.3545ZM10.7632 25.2602C17.0377 23.0209 25.6071 21.6645 35 21.6645C44.3929 21.6645 52.9623 23.0209 59.2368 25.2602C62.369 26.3781 65.0044 27.7425 66.8823 29.3271C68.7601 30.9116 70 32.8263 70 35C70 37.1737 68.7601 39.0884 66.8823 40.6729C65.0044 42.2575 62.369 43.6219 59.2368 44.7398C52.9623 46.9791 44.3929 48.3355 35 48.3355C25.6071 48.3355 17.0377 46.9791 10.7632 44.7398C7.63099 43.6219 4.99561 42.2575 3.11767 40.6729C1.23989 39.0884 0 37.1737 0 35C0 32.8263 1.23989 30.9116 3.11767 29.3271C4.99561 27.7425 7.63099 26.3781 10.7632 25.2602Z" fill="#FD6F00"/>
<path fill-rule="evenodd" clip-rule="evenodd" d="M23.4155 8.95365C21.4716 8.36584 20.0095 8.46722 18.961 9.03305C17.9126 9.59888 17.0876 10.7317 16.6603 12.5992C16.233 14.4665 16.2455 16.9165 16.7429 19.8183C17.7359 25.6118 20.6101 32.9113 25.1752 40.3021C29.7402 47.6929 35.0662 53.6693 39.9374 57.3699C42.3772 59.2234 44.641 60.4586 46.5846 61.0463C48.5285 61.6342 49.9906 61.5328 51.0391 60.9669C52.0876 60.4011 52.9125 59.2683 53.3399 57.4008C53.7671 55.5335 53.7546 53.0834 53.2572 50.1817C52.2642 44.3882 49.39 37.0887 44.825 29.6979C40.2599 22.3071 34.9339 16.3307 30.0627 12.6301C27.6229 10.7766 25.3592 9.5414 23.4155 8.95365ZM31.9056 10.5106C37.1176 14.4701 42.659 20.7287 47.3555 28.3323C52.0519 35.9358 55.0799 43.5508 56.1424 49.7496C56.6728 52.8441 56.7264 55.6596 56.1972 57.9721C55.6681 60.2843 54.514 62.2454 52.5001 63.3322C50.4861 64.4191 48.0921 64.3728 45.6852 63.645C43.2782 62.9171 40.6963 61.466 38.0945 59.4894C32.8825 55.5299 27.3411 49.2712 22.6447 41.6677C17.9482 34.0642 14.9202 26.4491 13.8577 20.2504C13.3273 17.1559 13.2738 14.3404 13.8029 12.0279C14.3321 9.71564 15.4861 7.7546 17.5001 6.66774C19.514 5.58088 21.908 5.6272 24.3149 6.35503C26.722 7.08291 29.3038 8.53403 31.9056 10.5106Z" fill="#FD6F00"/>
<path fill-rule="evenodd" clip-rule="evenodd" d="M53.3399 12.5991C52.9125 10.7317 52.0876 9.59881 51.0391 9.03298C49.9906 8.46715 48.5285 8.36577 46.5847 8.95359C44.641 9.54134 42.3772 10.7765 39.9374 12.63C35.0662 16.3306 29.7402 22.307 25.1752 29.6978C20.6101 37.0886 17.7359 44.3881 16.7429 50.1816C16.2455 53.0834 16.233 55.5335 16.6603 57.4007C17.0876 59.2682 17.9126 60.4011 18.9611 60.9669C20.0096 61.5327 21.4716 61.6341 23.4155 61.0463C25.3592 60.4585 27.6229 59.2233 30.0627 57.3698C34.934 53.6692 40.2599 47.6929 44.825 40.3021C49.3901 32.9113 52.2642 25.6118 53.2572 19.8182C53.7546 16.9165 53.7672 14.4664 53.3399 12.5991ZM56.1424 20.2503C55.0799 26.4491 52.0519 34.0642 47.3555 41.6677C42.659 49.2712 37.1176 55.5299 31.9056 59.4893C29.3038 61.4659 26.722 62.917 24.3149 63.6449C21.908 64.3727 19.5141 64.4191 17.5001 63.3322C15.4861 62.2453 14.3321 60.2843 13.8029 57.972C13.2738 55.6595 13.3273 52.844 13.8577 49.7496C14.9202 43.5508 17.9482 35.9357 22.6447 28.3322C27.3411 20.7287 32.8826 14.47 38.0945 10.5105C40.6963 8.53396 43.2782 7.08285 45.6853 6.35496C48.0922 5.62714 50.4861 5.58081 52.5001 6.66768C54.514 7.75454 55.6681 9.71558 56.1972 12.0279C56.7264 14.3403 56.6728 17.1559 56.1424 20.2503Z" fill="#FD6F00"/>
</svg>
