<svg width="70" height="70" viewBox="0 0 70 70" fill="none" xmlns="http://www.w3.org/2000/svg">
<path fill-rule="evenodd" clip-rule="evenodd" d="M27.9766 40.7078C37.4821 40.7078 50.12 41.7783 50.12 51.0387C50.12 60.7935 35.394 61.3788 29.0774 61.4139L26.784 61.4139C20.049 61.379 5.83331 60.797 5.83331 51.097C5.83331 41.3312 20.5592 40.7452 26.8759 40.7101L27.6348 40.7079C27.7531 40.7078 27.8671 40.7078 27.9766 40.7078ZM27.9766 45.0828C19.8712 45.0828 10.2083 46.1241 10.2083 51.097C10.2083 55.0403 16.1875 57.0412 27.9766 57.0412C39.7658 57.0412 45.745 55.0199 45.745 51.0387C45.745 47.0866 39.7658 45.0828 27.9766 45.0828ZM54.5612 39.3455C62.4537 40.5267 64.1074 44.1813 64.1074 47.0367C64.1074 49.163 63.1887 52.0417 58.8049 53.7013C58.5512 53.7975 58.2887 53.8442 58.0291 53.8442C57.1454 53.8442 56.3141 53.3046 55.9845 52.4325C55.5558 51.3038 56.1245 50.038 57.2533 49.6121C59.7324 48.673 59.7324 47.5267 59.7324 47.0367C59.7324 45.383 57.7754 44.2513 53.9166 43.6767C52.7208 43.4959 51.8954 42.3817 52.0733 41.1888C52.2541 39.993 53.3887 39.1909 54.5612 39.3455ZM27.9766 5.83325C36.2337 5.83325 42.9539 12.5533 42.9539 20.8103C42.9712 24.7887 41.4283 28.5453 38.6166 31.3745C35.8108 34.2066 32.0629 35.7728 28.0758 35.7874H27.9766C19.7166 35.7874 12.9966 29.0674 12.9966 20.8103C12.9966 12.5533 19.7166 5.83325 27.9766 5.83325ZM48.6488 9.111C54.3801 10.0502 58.5392 14.9531 58.5392 20.766C58.5276 26.6139 54.1613 31.6364 48.3805 32.4473C48.2784 32.4618 48.1763 32.4677 48.0742 32.4677C47.0009 32.4677 46.0646 31.6773 45.9101 30.5835C45.7438 29.3877 46.5751 28.2793 47.7709 28.1131C51.4109 27.6027 54.1584 24.4439 54.1642 20.7631C54.1642 17.1056 51.5451 14.0198 47.943 13.4306C46.7501 13.2323 45.9421 12.1093 46.1376 10.9164C46.333 9.7235 47.4617 8.92142 48.6488 9.111ZM27.9766 10.2083C22.1287 10.2083 17.3716 14.9653 17.3716 20.8103C17.3716 26.6553 22.1287 31.4124 27.9766 31.4124H28.0671C30.8787 31.4008 33.5271 30.2953 35.5133 28.2916C37.5025 26.2937 38.5904 23.6366 38.5788 20.8191C38.5788 14.9653 33.8216 10.2083 27.9766 10.2083Z" fill="#FD6F00"/>
</svg>
