<svg width="70" height="70" viewBox="0 0 70 70" fill="none" xmlns="http://www.w3.org/2000/svg">
<path d="M54.6875 30.625C54.6875 31.2052 54.457 31.7616 54.0468 32.1718C53.6366 32.582 53.0802 32.8125 52.5 32.8125H41.5625C40.9823 32.8125 40.4259 32.582 40.0157 32.1718C39.6055 31.7616 39.375 31.2052 39.375 30.625C39.375 30.0448 39.6055 29.4884 40.0157 29.0782C40.4259 28.668 40.9823 28.4375 41.5625 28.4375H52.5C53.0802 28.4375 53.6366 28.668 54.0468 29.0782C54.457 29.4884 54.6875 30.0448 54.6875 30.625ZM52.5 37.1875H41.5625C40.9823 37.1875 40.4259 37.418 40.0157 37.8282C39.6055 38.2384 39.375 38.7948 39.375 39.375C39.375 39.9552 39.6055 40.5116 40.0157 40.9218C40.4259 41.332 40.9823 41.5625 41.5625 41.5625H52.5C53.0802 41.5625 53.6366 41.332 54.0468 40.9218C54.457 40.5116 54.6875 39.9552 54.6875 39.375C54.6875 38.7948 54.457 38.2384 54.0468 37.8282C53.6366 37.418 53.0802 37.1875 52.5 37.1875ZM63.4375 15.3125V54.6875C63.4375 55.8478 62.9766 56.9606 62.1561 57.7811C61.3356 58.6016 60.2228 59.0625 59.0625 59.0625H10.9375C9.77718 59.0625 8.66438 58.6016 7.84391 57.7811C7.02344 56.9606 6.5625 55.8478 6.5625 54.6875V15.3125C6.5625 14.1522 7.02344 13.0394 7.84391 12.2189C8.66438 11.3984 9.77718 10.9375 10.9375 10.9375H59.0625C60.2228 10.9375 61.3356 11.3984 62.1561 12.2189C62.9766 13.0394 63.4375 14.1522 63.4375 15.3125ZM59.0625 54.6875V15.3125H10.9375V54.6875H59.0625ZM37.1164 45.3906C37.2614 45.9527 37.1773 46.5493 36.8824 47.0493C36.5876 47.5492 36.1062 47.9116 35.5441 48.0566C34.9821 48.2017 34.3855 48.1175 33.8855 47.8227C33.3855 47.5278 33.0232 47.0464 32.8781 46.4844C32.159 43.6789 29.307 41.5625 26.2473 41.5625C23.1875 41.5625 20.3383 43.6789 19.6164 46.4844C19.4714 47.0464 19.109 47.5278 18.609 47.8227C18.109 48.1175 17.5124 48.2017 16.9504 48.0566C16.3884 47.9116 15.907 47.5492 15.6121 47.0493C15.3173 46.5493 15.2331 45.9527 15.3781 45.3906C16.088 42.7485 17.7659 40.4703 20.0785 39.0086C18.8496 37.787 18.0111 36.228 17.6692 34.5292C17.3274 32.8305 17.4976 31.0685 18.1583 29.4666C18.8191 27.8647 19.9406 26.4951 21.3806 25.5313C22.8207 24.5675 24.5145 24.053 26.2473 24.053C27.9801 24.053 29.6739 24.5675 31.1139 25.5313C32.554 26.4951 33.6754 27.8647 34.3362 29.4666C34.9969 31.0685 35.1672 32.8305 34.8253 34.5292C34.4835 36.228 33.6449 37.787 32.416 39.0086C34.7311 40.4681 36.4106 42.7471 37.1191 45.3906H37.1164ZM26.25 37.1875C27.1153 37.1875 27.9612 36.9309 28.6806 36.4502C29.4001 35.9694 29.9608 35.2862 30.292 34.4867C30.6231 33.6873 30.7097 32.8076 30.5409 31.959C30.3721 31.1103 29.9554 30.3308 29.3436 29.7189C28.7317 29.1071 27.9522 28.6904 27.1035 28.5216C26.2549 28.3528 25.3752 28.4394 24.5758 28.7705C23.7763 29.1017 23.0931 29.6624 22.6123 30.3819C22.1316 31.1013 21.875 31.9472 21.875 32.8125C21.875 33.9728 22.3359 35.0856 23.1564 35.9061C23.9769 36.7266 25.0897 37.1875 26.25 37.1875Z" fill="#FD6F00"/>
</svg>
