<svg width="14" height="19" viewBox="0 0 14 19" fill="none" xmlns="http://www.w3.org/2000/svg">
<path d="M8.78906 17.1055L9.23628 17.9999L8.78906 17.1055ZM5.21094 17.1055L4.76372 17.9999L5.21094 17.1055ZM9.00247 16.7642L8.00269 16.7432L9.00247 16.7642ZM3.91546 12.2318L4.70564 11.6189L3.91546 12.2318ZM10.5974 11.8019L11.1975 12.6018L10.5974 11.8019ZM9.85827 12.6835L10.7823 13.0657L9.85827 12.6835ZM10.0836 12.2318L9.29337 11.619L10.0836 12.2318ZM7 1V2C9.76142 2 12 4.23858 12 7H13H14C14 3.13401 10.866 0 7 0V1ZM13 7H12C12 8.63595 11.2152 10.0882 9.99723 11.002L10.5974 11.8019L11.1975 12.6018C12.8971 11.3266 14 9.29217 14 7H13ZM9.85827 12.6835L8.93421 12.3012C8.35242 13.7076 8.0347 15.2135 8.00269 16.7432L9.00247 16.7642L10.0022 16.7851C10.029 15.5047 10.295 14.2438 10.7823 13.0657L9.85827 12.6835ZM8.78906 17.1055L8.34185 16.211C7.49727 16.6333 6.50273 16.6333 5.65815 16.211L5.21094 17.1055L4.76372 17.9999C6.17136 18.7037 7.82864 18.7037 9.23628 17.9999L8.78906 17.1055ZM4.99753 16.7642L5.99731 16.7432C5.96522 15.213 5.64675 13.7072 5.06473 12.3009L4.14073 12.6833L3.21674 13.0657C3.70444 14.2441 3.9709 15.5049 3.99775 16.7851L4.99753 16.7642ZM3.40185 11.8019L4.00212 11.0021C2.78454 10.0883 2 8.6359 2 7H1H0C0 9.29176 1.10235 11.3264 2.80158 12.6017L3.40185 11.8019ZM1 7H2C2 4.23858 4.23858 2 7 2V1V0C3.13401 0 0 3.13401 0 7H1ZM5.21094 17.1055L5.65815 16.211C5.87143 16.3177 5.9928 16.5285 5.99731 16.7432L4.99753 16.7642L3.99775 16.7851C4.00831 17.2889 4.2919 17.764 4.76372 17.9999L5.21094 17.1055ZM9.00247 16.7642L8.00269 16.7432C8.00718 16.5285 8.12858 16.3177 8.34185 16.211L8.78906 17.1055L9.23628 17.9999C9.7081 17.764 9.99171 17.2889 10.0022 16.7851L9.00247 16.7642ZM4.14073 12.6833L5.06473 12.3009C4.98638 12.1116 4.88802 11.8541 4.70564 11.6189L3.91546 12.2318L3.12527 12.8447C3.11175 12.8272 3.10925 12.8178 3.12234 12.845C3.1302 12.8613 3.14105 12.8853 3.15736 12.9235C3.17381 12.962 3.19231 13.0067 3.21674 13.0657L4.14073 12.6833ZM3.40185 11.8019L2.80158 12.6017C2.9522 12.7148 3.04021 12.7811 3.10238 12.8319C3.16487 12.8831 3.15305 12.8805 3.12527 12.8447L3.91546 12.2318L4.70564 11.6189C4.5188 11.378 4.22858 11.1721 4.00212 11.0021L3.40185 11.8019ZM10.5974 11.8019L9.99723 11.002C9.77068 11.172 9.48032 11.3779 9.29337 11.619L10.0836 12.2318L10.8738 12.8447C10.846 12.8805 10.8341 12.8831 10.8966 12.832C10.9588 12.7811 11.0468 12.7148 11.1975 12.6018L10.5974 11.8019ZM9.85827 12.6835L10.7823 13.0657C10.8067 13.0067 10.8252 12.962 10.8417 12.9235C10.858 12.8853 10.8688 12.8614 10.8767 12.8451C10.8898 12.8179 10.8873 12.8273 10.8738 12.8447L10.0836 12.2318L9.29337 11.619C9.11089 11.8543 9.01255 12.1118 8.93421 12.3012L9.85827 12.6835Z" fill="#33363F"/>
</svg>
