<svg width="70" height="70" viewBox="0 0 70 70" fill="none" xmlns="http://www.w3.org/2000/svg">
<path d="M35 6.5625C29.3756 6.5625 23.8775 8.23033 19.201 11.3551C14.5245 14.4798 10.8796 18.9212 8.72719 24.1174C6.57482 29.3137 6.01166 35.0315 7.10893 40.5479C8.2062 46.0642 10.9146 51.1313 14.8917 55.1083C18.8687 59.0854 23.9358 61.7938 29.4521 62.8911C34.9685 63.9883 40.6863 63.4252 45.8826 61.2728C51.0788 59.1205 55.5202 55.4755 58.6449 50.799C61.7697 46.1225 63.4375 40.6244 63.4375 35C63.4288 27.4606 60.43 20.2324 55.0988 14.9012C49.7676 9.57006 42.5394 6.57118 35 6.5625ZM59.0625 35C59.0644 37.2191 58.758 39.4277 58.152 41.5625H47.6219C48.2927 37.2132 48.2927 32.7868 47.6219 28.4375H58.152C58.758 30.5723 59.0644 32.7809 59.0625 35ZM27.8906 45.9375H42.1094C40.7086 50.5274 38.2768 54.7362 35 58.2422C31.7244 54.7353 29.2929 50.5268 27.8906 45.9375ZM26.8242 41.5625C26.0732 37.2197 26.0732 32.7803 26.8242 28.4375H43.1977C43.9487 32.7803 43.9487 37.2197 43.1977 41.5625H26.8242ZM10.9375 35C10.9356 32.7809 11.2421 30.5723 11.8481 28.4375H22.3781C21.7073 32.7868 21.7073 37.2132 22.3781 41.5625H11.8481C11.2421 39.4277 10.9356 37.2191 10.9375 35ZM42.1094 24.0625H27.8906C29.2914 19.4726 31.7232 15.2638 35 11.7578C38.2756 15.2647 40.7072 19.4732 42.1094 24.0625ZM56.4184 24.0625H46.6785C45.4509 19.5587 43.382 15.328 40.5809 11.5938C43.9652 12.4068 47.1338 13.942 49.8693 16.0941C52.6048 18.2463 54.8426 20.9645 56.4293 24.0625H56.4184ZM29.4192 11.5938C26.6181 15.328 24.5491 19.5587 23.3215 24.0625H13.5707C15.1574 20.9645 17.3952 18.2463 20.1307 16.0941C22.8662 13.942 26.0348 12.4068 29.4192 11.5938ZM13.5707 45.9375H23.3215C24.5491 50.4413 26.6181 54.672 29.4192 58.4063C26.0348 57.5932 22.8662 56.058 20.1307 53.9059C17.3952 51.7537 15.1574 49.0355 13.5707 45.9375ZM40.5809 58.4063C43.382 54.672 45.4509 50.4413 46.6785 45.9375H56.4293C54.8426 49.0355 52.6048 51.7537 49.8693 53.9059C47.1338 56.058 43.9652 57.5932 40.5809 58.4063Z" fill="#FD6F00"/>
</svg>
