<svg width="48" height="48" viewBox="0 0 48 48" fill="none" xmlns="http://www.w3.org/2000/svg">
<path d="M24 0C37.2548 0 48 10.7452 48 24C48 37.2548 37.2548 48 24 48C10.7452 48 0 37.2548 0 24C0 10.7452 10.7452 0 24 0ZM24.791 8.7998C16.9249 8.7998 10.5227 15.2018 10.5195 23.0703C10.5185 25.5855 11.1759 28.0408 12.4248 30.2051L10.4004 37.5996L17.9658 35.6152C20.0502 36.7521 22.3968 37.3517 24.7852 37.3525H24.791C32.6594 37.3493 39.0593 30.9478 39.0625 23.0811C39.0639 19.2681 37.58 15.6827 34.8857 12.9854C32.1914 10.288 28.6086 8.80147 24.791 8.7998Z" fill="#939393"/>
<path d="M24.7954 11.2104C27.9636 11.2115 30.9426 12.4469 33.1821 14.689C35.4215 16.931 36.654 19.9112 36.6528 23.0806C36.6502 29.6209 31.3291 34.9417 24.7915 34.9419H24.7866C22.6582 34.9411 20.5706 34.3692 18.7495 33.2886L18.3159 33.0317L13.8267 34.2095L15.0249 29.8325L14.7427 29.3833C13.5554 27.4949 12.9283 25.312 12.9292 23.0708C12.9319 16.5311 18.2528 11.2106 24.7954 11.2104ZM19.7388 16.48C19.5011 16.48 19.1144 16.5693 18.7876 16.9263C18.4607 17.2833 17.5396 18.146 17.5396 19.9009C17.5396 21.6558 18.817 23.351 18.9956 23.5894C19.1739 23.8274 21.5103 27.4295 25.0874 28.9741C25.9379 29.3414 26.6018 29.5608 27.1196 29.7251C27.9737 29.9965 28.7514 29.9585 29.3657 29.8667C30.0509 29.7644 31.4757 29.0033 31.7729 28.1704C32.0698 27.3376 32.07 26.6238 31.981 26.4751C31.8919 26.3264 31.6539 26.2376 31.2974 26.0591C30.9409 25.8806 29.1883 25.0183 28.8608 24.8989C28.5341 24.78 28.2958 24.7198 28.0581 25.0767C27.8204 25.4336 27.1372 26.2371 26.9292 26.4751C26.7212 26.7129 26.5132 26.7425 26.1567 26.564C25.7998 26.3854 24.6512 26.0089 23.2896 24.7944C22.2296 23.849 21.5133 22.6819 21.3052 22.3247C21.0972 21.9677 21.2829 21.774 21.4614 21.5962C21.6218 21.4364 21.8184 21.1803 21.9966 20.9722C22.1747 20.7642 22.2343 20.615 22.353 20.3774C22.4718 20.1394 22.4128 19.9309 22.3237 19.7524C22.2346 19.574 21.5214 17.8192 21.2241 17.105C20.9349 16.4102 20.6412 16.5035 20.4224 16.4927C20.2147 16.4822 19.9764 16.48 19.7388 16.48Z" fill="#939393"/>
</svg>
